<?xml version="1.0" standalone="no"?><!DOCTYPE svg PUBLIC "-//W3C//DTD SVG 1.1//EN" "http://www.w3.org/Graphics/SVG/1.1/DTD/svg11.dtd"><svg t="1770691161393" class="icon" viewBox="0 0 1024 1024" version="1.1" xmlns="http://www.w3.org/2000/svg" p-id="1605" xmlns:xlink="http://www.w3.org/1999/xlink" width="200" height="200"><path d="M916.16 297.813333l-301.44 522.133334L512 906.666667l-38.4-32.426667L848 225.44a243.786667 243.786667 0 0 1 67.946667 72.373333z m19.36 39.626667A239.413333 239.413333 0 0 1 880 592.586667l-24.213333 24-158.666667 133.813333z m-490.293333 512.853333L378.666667 793.973333l353.066666-611.52a244.96 244.96 0 0 1 85.333334 24.266667z m-95.093334-80.266666l-61.493333-51.946667 288-498.346667a243.253333 243.253333 0 0 1 113.226667-37.706666z m-89.92-75.893334L186.666667 631.84l243.573333-422.293333a242.986667 242.986667 0 0 1 57.546667 42.346666l17.653333 17.493334z m-101.333333-87.253333L144 592.586667a240.853333 240.853333 0 0 1-42.666667-57.813334l203.626667-353.173333a245.92 245.92 0 0 1 91.52 13.28zM83.413333 492.16A239.306667 239.306667 0 0 1 144 251.893333a242.293333 242.293333 0 0 1 114.826667-64z" p-id="1606"></path></svg>